<svg xmlns="http://www.w3.org/2000/svg" width="60" height="60" viewBox="0 0 60 60">
  <g id="Twitter_Group" data-name="Twitter Group" transform="translate(-1201 -2793)">
    <g id="Oval" transform="translate(1201 2793)" opacity="0.403">
      <path id="Path_108" data-name="Path 108" d="M30,0A30,30,0,1,1,0,30,30,30,0,0,1,30,0Z" fill="none"/>
      <path id="Path_109" data-name="Path 109" d="M30,1.25A28.758,28.758,0,0,0,18.81,56.491,28.758,28.758,0,0,0,41.19,3.509,28.569,28.569,0,0,0,30,1.25M30,0A30,30,0,1,1,0,30,30,30,0,0,1,30,0Z" fill="#fff"/>
    </g>
    <path id="twitter" d="M18,1.776a7.25,7.25,0,0,1-2.121.6A3.788,3.788,0,0,0,17.5.278a7.28,7.28,0,0,1-2.346.918A3.641,3.641,0,0,0,12.464,0a3.768,3.768,0,0,0-3.6,4.649A10.405,10.405,0,0,1,1.254.694,3.85,3.85,0,0,0,2.4,5.749,3.617,3.617,0,0,1,.726,5.275a3.771,3.771,0,0,0,2.963,3.76A3.612,3.612,0,0,1,2.02,9.1a3.711,3.711,0,0,0,3.45,2.628A7.3,7.3,0,0,1,0,13.3,10.258,10.258,0,0,0,5.66,15c6.858,0,10.731-5.938,10.5-11.264A7.552,7.552,0,0,0,18,1.776Z" transform="translate(1222 2816.182)" fill="#fff"/>
  </g>
</svg>
