<svg xmlns="http://www.w3.org/2000/svg" width="57" height="19" viewBox="0 0 57 19">
  <g id="Group_93" data-name="Group 93" transform="translate(-202 -56)">
    <path id="Polygon_1" data-name="Polygon 1" d="M7.754,3.124a2,2,0,0,1,3.492,0l6.091,10.9A2,2,0,0,1,15.591,17H3.409a2,2,0,0,1-1.746-2.976Z" transform="translate(259 56) rotate(90)" fill="#4e1616"/>
    <path id="Polygon_2" data-name="Polygon 2" d="M7.754,3.124a2,2,0,0,1,3.492,0l6.091,10.9A2,2,0,0,1,15.591,17H3.409a2,2,0,0,1-1.746-2.976Z" transform="translate(202 75) rotate(-90)" fill="#4e1616"/>
    <circle id="Ellipse_6" data-name="Ellipse 6" cx="9.5" cy="9.5" r="9.5" transform="translate(221 56)" fill="#4e1616"/>
  </g>
</svg>
