<svg xmlns="http://www.w3.org/2000/svg" width="119" height="58" viewBox="0 0 119 58">
  <g id="Group_2" data-name="Group 2" transform="translate(-140 -51)">
    <text id="Tom_Ertvaag" data-name="Tom
Ertvaag" transform="translate(140 74)" fill="#fff" font-size="24" font-family="Montserrat-SemiBold, Montserrat" font-weight="600"><tspan x="0" y="0">TOM</tspan><tspan x="0" y="29">ERTVAAG</tspan></text>
    <path id="Polygon_1" data-name="Polygon 1" d="M7.754,3.124a2,2,0,0,1,3.492,0l6.091,10.9A2,2,0,0,1,15.591,17H3.409a2,2,0,0,1-1.746-2.976Z" transform="translate(259 56) rotate(90)" fill="#4e1616"/>
    <path id="Polygon_2" data-name="Polygon 2" d="M7.754,3.124a2,2,0,0,1,3.492,0l6.091,10.9A2,2,0,0,1,15.591,17H3.409a2,2,0,0,1-1.746-2.976Z" transform="translate(202 75) rotate(-90)" fill="#4e1616"/>
    <circle id="Ellipse_6" data-name="Ellipse 6" cx="9.5" cy="9.5" r="9.5" transform="translate(221 56)" fill="#4e1616"/>
  </g>
</svg>
